<svg xmlns="http://www.w3.org/2000/svg" xmlns:xlink= "http://www.w3.org/1999/xlink" viewbox="0 0 100 100" filter="url(#shadow2)" fill="url(#grad2)">
  <defs>
    <filter id="shadow2">
      <feDropShadow dx="0" dy="0" stddeviation="5" flood-color="#dcdcdc" />
    </filter>
    <radialGradient id="grad2">
      <stop offset="10%" stop-color="#aaa" />
      <stop offset="20%" stop-color="#888" />
      <stop offset="40%" stop-color="#bebebe" />
      <stop offset="60%" stop-color="#d1d1d1" />
      <stop offset="70%" stop-color="#bebebe" />
      <stop offset="80%" stop-color="#ccc" />
      <stop offset="95%" stop-color="#ccc" />
      <stop offset="100%" stop-color="#bbb" />
    </radialGradient>
  </defs>
  <path stroke="#eee" stroke-width="1px"
    d="M97.6,55.7V44.3l-13.6-2.9c-0.8-3.3-2.1-6.4-3.9-9.3l7.6-11.7l-8-8L67.9,20c-2.9-1.7-6-3.1-9.3-3.9L55.7,2.4H44.3l-2.9,13.6      c-3.3,0.8-6.4,2.1-9.3,3.9l-11.7-7.6l-8,8L20,32.1c-1.7,2.9-3.1,6-3.9,9.3L2.4,44.3v11.4l13.6,2.9c0.8,3.3,2.1,6.4,3.9,9.3      l-7.6,11.7l8,8L32.1,80c2.9,1.7,6,3.1,9.3,3.9l2.9,13.6h11.4l2.9-13.6c3.3-0.8,6.4-2.1,9.3-3.9l11.7,7.6l8-8L80,67.9      c1.7-2.9,3.1-6,3.9-9.3L97.6,55.7z M50,65.6c-8.7,0-15.6-7-15.6-15.6s7-15.6,15.6-15.6s15.6,7,15.6,15.6S58.7,65.6,50,65.6z">
  </path>
</svg>